<svg xmlns="http://www.w3.org/2000/svg" viewBox="0 0 128 128" role="img" aria-label="竹叶吉祥物（站姿）">
  <defs>
    <linearGradient id="mGrad" x1="0" y1="0" x2="0" y2="1">
      <stop offset="0" stop-color="#9ac36a"/>
      <stop offset="1" stop-color="#3d7a4e"/>
    </linearGradient>
  </defs>
  <rect x="60" y="0" width="8" height="16" rx="4" fill="#9c7b4f"/>
  <path d="M 64 10 C 40 26 26 58 32 92 C 36 110 50 120 64 120 C 78 120 92 110 96 92 C 102 58 88 26 64 10 Z" fill="url(#mGrad)"/>
  <path d="M 64 14 C 62 48 66 80 60 108" fill="none" stroke="#ffffff" stroke-opacity="0.35" stroke-width="3" stroke-linecap="round"/>
  <ellipse cx="46" cy="120" rx="11" ry="5" fill="#2c5a3b"/>
  <ellipse cx="82" cy="120" rx="11" ry="5" fill="#2c5a3b"/>
  <circle cx="52" cy="64" r="5" fill="#22302a"/>
  <circle cx="76" cy="64" r="5" fill="#22302a"/>
  <circle cx="53.5" cy="62.5" r="1.6" fill="#ffffff"/>
  <circle cx="77.5" cy="62.5" r="1.6" fill="#ffffff"/>
  <path d="M 56 76 Q 64 84 72 76" fill="none" stroke="#22302a" stroke-width="3" stroke-linecap="round"/>
  <circle cx="44" cy="72" r="4.5" fill="#e8c9c0" opacity="0.85"/>
  <circle cx="84" cy="72" r="4.5" fill="#e8c9c0" opacity="0.85"/>
  <path d="M 44 80 C 36 84 32 86 28 84" fill="none" stroke="#2c5a3b" stroke-width="5" stroke-linecap="round"/>
  <path d="M 84 80 C 92 84 96 86 100 84" fill="none" stroke="#2c5a3b" stroke-width="5" stroke-linecap="round"/>
  <circle cx="26" cy="84" r="5" fill="#2c5a3b"/>
  <circle cx="102" cy="84" r="5" fill="#2c5a3b"/>
</svg>
